<svg width="222" height="193" viewBox="0 0 222 193" fill="none" xmlns="http://www.w3.org/2000/svg">
<path d="M-42 185H51C53.2091 185 55 186.791 55 189C55 191.209 53.2091 193 51 193H-42V185Z" fill="#E3646E"/>
<path d="M-42 162H133C135.209 162 137 163.791 137 166C137 168.209 135.209 170 133 170H-42V162Z" fill="#BB72E9"/>
<path d="M-42 75H83C85.2091 75 87 76.7909 87 79C87 81.2091 85.2091 83 83 83H-42V75Z" fill="#EABD5F"/>
<path d="M-42 52H52C54.2091 52 56 53.7909 56 56C56 58.2091 54.2091 60 52 60H-42V52Z" fill="#878EA1"/>
<path d="M-42 7H13C15.2091 7 17 8.79086 17 11C17 13.2091 15.2091 15 13 15H-42V7Z" fill="#82BC4F"/>
<rect x="-27" y="29" width="123" height="8" rx="4" fill="#BB72E9"/>
<rect x="7" y="139" width="108" height="8" rx="4" fill="#3996DB"/>
</svg>
