<svg width="203" height="268" viewBox="0 0 203 268" fill="none" xmlns="http://www.w3.org/2000/svg">
<path d="M145 171C145 168.791 146.791 167 149 167H261V175H149C146.791 175 145 173.209 145 171Z" fill="#82BC4F"/>
<path d="M68 148C68 145.791 69.7909 144 72 144H183C185.209 144 187 145.791 187 148C187 150.209 185.209 152 183 152H72C69.7909 152 68 150.209 68 148Z" fill="#EABD5F"/>
<path d="M106 125C106 122.791 107.791 121 110 121H221C223.209 121 225 122.791 225 125C225 127.209 223.209 129 221 129H110C107.791 129 106 127.209 106 125Z" fill="#82BC4F"/>
<path d="M78 102C78 99.7909 79.7909 98 82 98H203C205.209 98 207 99.7909 207 102C207 104.209 205.209 106 203 106H82C79.7909 106 78 104.209 78 102Z" fill="#878EA1"/>
<path d="M72 18C72 15.7909 73.7909 14 76 14H162C164.209 14 166 15.7909 166 18C166 20.2091 164.209 22 162 22H76C73.7909 22 72 20.2091 72 18Z" fill="#82BC4F"/>
<path d="M187 18C187 15.7909 188.791 14 191 14H261V22H191C188.791 22 187 20.2091 187 18Z" fill="#FF5500"/>
<path d="M162 264C162 261.791 163.791 260 166 260H261V268H166C163.791 268 162 266.209 162 264Z" fill="#BB72E9"/>
<path d="M48 264C48 261.791 49.7909 260 52 260H143C145.209 260 147 261.791 147 264C147 266.209 145.209 268 143 268H52C49.7909 268 48 266.209 48 264Z" fill="#82BC4F"/>
<path d="M16 242C16 239.791 17.7909 238 20 238H212C214.209 238 216 239.791 216 242C216 244.209 214.209 246 212 246H20C17.7909 246 16 244.209 16 242Z" fill="#FF5500"/>
</svg>
